<svg xmlns="http://www.w3.org/2000/svg" width="800" height="800" viewBox="0 0 800 800">
<g>
<path d="M 313.78 695.44 C310.02,693.40 309.00,691.06 309.00,684.49 C309.00,679.63 309.39,678.45 311.83,676.02 C315.52,672.32 315.59,672.32 371.50,670.92 C396.80,670.29 417.64,669.65 417.81,669.49 C417.98,669.34 396.33,647.23 369.70,620.36 C291.26,541.20 263.10,508.06 246.94,475.88 C237.42,456.92 229.84,429.69 226.93,404.05 C225.19,388.71 226.23,355.69 228.94,340.50 C235.57,303.30 249.10,272.11 269.71,246.56 C276.81,237.74 297.04,219.69 310.91,209.79 C338.80,189.88 369.88,179.84 403.50,179.89 C443.33,179.95 479.98,195.19 505.76,222.42 C515.32,232.53 521.50,241.56 527.47,254.18 C531.67,263.06 537.00,280.59 537.00,285.54 C537.00,290.36 538.14,290.59 563.13,290.87 C575.98,291.01 587.51,291.32 588.75,291.56 C589.99,291.80 592.12,292.23 593.48,292.51 C596.94,293.23 598.58,296.96 601.49,310.75 C604.43,324.70 606.89,332.15 613.92,348.50 C619.69,361.92 636.41,393.87 644.19,406.34 C656.19,425.59 679.13,451.27 694.15,462.27 C699.92,466.49 702.09,468.75 702.98,471.44 C704.51,476.08 703.49,480.47 700.29,482.99 C697.82,484.93 696.30,485.00 657.87,485.00 L 618.00 485.00 L 618.00 519.94 C618.00,543.54 617.65,555.10 616.94,555.54 C615.30,556.55 612.97,553.93 604.92,542.03 C600.84,536.00 597.24,531.06 596.93,531.04 C596.61,531.02 592.72,536.08 588.27,542.30 C579.32,554.82 577.72,556.49 575.51,555.64 C574.20,555.14 574.00,550.38 574.00,520.03 C574.00,492.70 573.73,484.99 572.75,484.94 C572.06,484.91 566.75,484.93 560.95,484.99 C555.15,485.05 549.07,484.61 547.45,484.00 C545.83,483.40 538.31,476.74 530.74,469.21 C520.27,458.78 516.66,455.75 515.62,456.51 C514.86,457.05 508.12,463.12 500.63,470.00 C493.14,476.88 485.55,483.04 483.76,483.69 C479.60,485.22 330.33,485.53 325.08,484.02 C319.67,482.47 317.00,479.33 317.00,474.51 C317.00,469.35 316.86,469.48 342.20,450.71 C361.32,436.54 374.95,424.30 384.19,413.00 C389.79,406.15 408.89,379.22 415.78,368.45 C423.65,356.16 429.32,343.31 436.95,320.45 C444.07,299.11 445.89,295.36 450.09,293.35 C451.68,292.59 462.92,292.05 483.00,291.78 C518.41,291.28 515.62,292.48 512.02,279.33 C507.85,264.16 498.58,248.79 486.00,236.21 C477.52,227.73 468.83,221.76 455.94,215.55 C430.02,203.08 396.82,202.05 363.50,212.70 C328.08,224.01 290.77,254.50 273.19,286.48 C263.66,303.84 258.55,319.94 254.46,345.54 C248.71,381.53 250.50,407.69 260.97,441.01 C267.85,462.86 278.65,482.16 297.06,505.50 C310.08,522.00 345.34,558.95 401.19,614.65 L 456.50 669.80 L 489.00 669.33 C508.64,669.04 523.23,669.25 525.86,669.85 C528.26,670.39 531.52,672.08 533.11,673.61 C535.69,676.08 536.00,677.04 536.00,682.60 C536.00,688.29 535.74,689.04 533.00,691.35 C531.28,692.80 528.17,694.12 525.75,694.44 C521.51,695.00 366.38,697.04 333.72,696.96 C320.48,696.93 315.87,696.58 313.78,695.44 ZM 478.70 456.57 C481.94,454.13 488.32,448.25 492.88,443.51 C500.84,435.22 501.10,434.79 499.62,432.69 C497.99,430.37 488.00,413.56 483.76,406.00 C477.23,394.36 463.23,365.36 459.01,354.72 L 454.31 342.89 L 452.52 347.70 C449.21,356.57 438.14,377.42 431.39,387.50 C419.91,404.65 401.54,429.18 394.48,436.80 C390.76,440.82 383.95,447.45 379.35,451.55 L 370.97 459.00 L 379.24 459.14 C383.78,459.21 405.73,459.58 428.00,459.95 C450.27,460.31 469.47,460.70 470.65,460.81 C471.87,460.92 475.37,459.07 478.70,456.57 ZM 654.00 457.25 C654.00,457.08 649.02,450.99 642.94,443.72 C626.20,423.70 612.59,402.28 600.95,377.58 C594.57,364.06 584.97,339.88 580.98,327.25 L 577.73 317.00 L 528.62 316.92 C501.60,316.87 478.49,316.72 477.25,316.58 C476.01,316.45 475.00,316.70 475.00,317.16 C475.00,317.61 476.41,322.37 478.13,327.74 C490.54,366.50 519.85,415.55 549.39,447.00 L 558.31 456.50 L 604.41 457.00 C629.76,457.27 651.29,457.52 652.25,457.54 C653.21,457.56 654.00,457.43 654.00,457.25 ZM 162.17 657.69 C159.48,654.82 159.40,651.86 161.95,649.54 C163.77,647.90 163.79,647.61 162.31,645.35 C161.06,643.44 160.95,642.40 161.81,640.52 C163.42,636.98 165.90,636.02 170.00,637.36 C172.97,638.33 173.55,639.01 173.82,641.88 C174.00,643.73 173.67,645.73 173.09,646.31 C172.34,647.06 172.43,647.84 173.40,648.94 C175.96,651.87 176.14,654.56 173.94,657.34 C171.16,660.88 165.34,661.05 162.17,657.69 ZM 171.92 655.15 C174.06,651.15 167.47,646.93 164.20,650.20 C161.35,653.05 163.65,657.00 168.16,657.00 C169.83,657.00 171.32,656.27 171.92,655.15 ZM 171.39 644.43 C171.72,643.56 171.53,641.99 170.96,640.93 C168.89,637.06 163.15,639.74 164.48,643.95 C165.28,646.47 170.47,646.83 171.39,644.43 ZM 168.00 603.00 L 168.00 593.00 L 165.50 593.00 C163.94,593.00 163.00,592.43 163.00,591.50 C163.00,590.42 164.11,590.00 167.00,590.00 L 171.00 590.00 L 171.00 601.50 C171.00,611.06 170.75,613.00 169.50,613.00 C168.27,613.00 168.00,611.22 168.00,603.00 ZM 440.87 608.75 C440.44,597.82 440.41,585.24 440.81,583.65 C441.23,582.01 442.14,581.84 448.55,582.16 C457.35,582.61 460.00,584.41 460.00,589.96 C460.00,591.96 459.50,594.10 458.90,594.70 C458.09,595.51 458.41,596.63 460.05,598.86 C461.94,601.41 462.16,602.46 461.38,605.21 C460.11,609.71 455.35,612.00 447.25,612.00 L 441.00 612.00 L 440.87 608.75 ZM 455.59 605.93 C459.42,602.75 455.34,597.69 449.35,598.18 C445.79,598.48 445.48,598.75 445.18,601.85 C445.00,603.69 445.06,605.73 445.32,606.38 C445.89,607.88 453.65,607.54 455.59,605.93 ZM 454.93 592.14 C456.16,589.83 454.40,587.12 451.50,586.86 C445.90,586.36 445.00,586.87 445.00,590.50 C445.00,593.98 445.03,594.00 449.46,594.00 C452.80,594.00 454.18,593.53 454.93,592.14 ZM 473.00 610.24 C469.00,608.09 465.00,601.22 465.00,596.54 C465.01,589.54 470.61,583.26 477.72,582.31 C486.49,581.13 493.76,586.72 494.74,595.36 C496.06,607.14 483.37,615.82 473.00,610.24 ZM 487.08 604.08 C490.99,600.16 491.12,594.49 487.41,590.08 C485.25,587.51 484.10,587.00 480.47,587.00 C477.30,587.00 475.34,587.66 473.31,589.41 C470.90,591.48 470.50,592.57 470.50,597.00 C470.50,601.43 470.90,602.52 473.31,604.59 C477.42,608.13 483.24,607.91 487.08,604.08 ZM 507.02 610.31 C493.53,603.31 498.29,582.02 513.35,582.00 C528.00,581.99 534.06,600.63 522.26,609.41 C518.62,612.12 511.34,612.55 507.02,610.31 ZM 519.06 605.97 C522.16,604.31 524.27,599.25 523.52,595.27 C522.52,589.95 519.00,587.00 513.63,587.00 C509.89,587.00 508.77,587.49 506.59,590.08 C500.98,596.74 504.96,607.00 513.15,607.00 C515.34,607.00 518.00,606.54 519.06,605.97 ZM 534.00 596.93 C534.00,581.87 534.00,581.86 536.25,582.18 C538.31,582.47 538.50,583.02 538.47,588.75 C538.45,592.19 538.68,595.00 538.97,595.00 C539.26,595.00 542.12,592.07 545.31,588.50 C550.04,583.21 551.69,582.00 554.16,582.00 L 557.19 582.00 L 550.60 589.12 L 544.01 596.24 L 548.98 601.97 C551.71,605.13 554.64,608.28 555.47,608.98 C557.78,610.89 557.32,612.00 554.22,612.00 C552.01,612.00 550.23,610.57 545.54,605.05 C542.30,601.23 539.28,598.33 538.83,598.61 C538.38,598.89 538.09,600.33 538.19,601.81 C538.67,609.06 538.04,612.00 536.00,612.00 C534.09,612.00 534.00,611.33 534.00,596.93 ZM 575.24 610.01 C570.68,607.23 568.01,602.42 568.01,597.00 C568.01,587.89 574.71,581.61 583.73,582.28 C590.02,582.74 593.95,585.48 591.65,587.78 C590.56,588.87 589.76,588.94 588.18,588.10 C587.05,587.49 584.28,587.00 582.02,587.00 C576.14,587.00 573.00,590.54 573.00,597.19 C573.00,603.69 576.04,607.00 582.02,607.00 C584.28,607.00 587.03,606.52 588.13,605.93 C589.58,605.15 590.52,605.19 591.56,606.05 C593.70,607.83 593.35,608.61 589.60,610.39 C585.00,612.57 579.19,612.41 575.24,610.01 ZM 598.00 596.93 C598.00,581.87 598.00,581.86 600.25,582.18 C602.43,582.49 602.51,582.91 602.78,594.75 L 603.06 607.00 L 609.41 607.00 C614.86,607.00 615.84,607.28 616.27,608.94 C616.55,610.01 616.53,611.14 616.22,611.44 C615.92,611.75 611.69,612.00 606.83,612.00 L 598.00 612.00 L 598.00 596.93 ZM 626.39 611.02 C625.23,610.55 623.31,608.94 622.14,607.45 C620.24,605.03 620.00,603.46 620.00,593.37 C620.00,582.84 620.14,582.00 621.91,582.00 C623.66,582.00 623.85,582.95 624.16,592.97 C624.54,605.38 625.53,607.37 631.18,607.21 C636.79,607.05 638.00,604.43 638.00,592.39 L 638.00 582.00 L 640.50 582.00 L 643.00 582.00 L 643.00 592.10 C643.00,603.59 641.48,608.18 636.91,610.54 C633.81,612.15 629.65,612.34 626.39,611.02 ZM 649.00 597.13 L 649.00 582.00 L 654.85 582.00 C662.85,582.00 666.53,583.45 668.09,587.21 C669.18,589.85 669.12,590.72 667.68,593.24 C666.07,596.04 666.09,596.29 668.00,598.72 C670.64,602.08 670.53,605.27 667.67,608.60 C665.57,611.04 664.52,611.36 657.17,611.78 L 649.00 612.26 L 649.00 597.13 ZM 664.01 606.49 C664.55,606.16 665.00,604.57 665.00,602.98 C665.00,599.54 662.70,598.00 657.57,598.00 L 654.00 598.00 L 654.00 602.82 L 654.00 607.64 L 658.51 607.37 C660.99,607.23 663.46,606.83 664.01,606.49 ZM 662.80 592.80 C664.25,591.35 664.37,588.35 663.01,587.50 C662.46,587.17 660.21,586.79 658.01,586.67 L 654.00 586.44 L 654.00 590.22 C654.00,593.93 654.07,594.00 657.80,594.00 C659.89,594.00 662.14,593.46 662.80,592.80 ZM 162.40 564.67 C160.22,562.80 159.60,561.26 159.24,556.83 C158.43,547.15 163.31,541.63 170.55,544.02 C178.45,546.62 179.36,561.69 171.85,565.58 C167.96,567.59 165.52,567.35 162.40,564.67 ZM 170.60 563.23 C174.99,560.30 174.99,549.70 170.60,546.77 C166.22,543.84 162.00,547.99 162.00,555.22 C162.00,561.86 166.45,566.01 170.60,563.23 ZM 160.00 518.71 C160.00,518.00 162.28,515.19 165.08,512.46 C171.11,506.56 172.32,504.58 171.49,501.96 C170.66,499.36 164.55,499.20 163.12,501.75 C162.19,503.39 162.09,503.38 161.40,501.61 C159.67,497.11 170.47,494.98 173.44,499.22 C176.03,502.91 175.31,505.75 170.50,510.90 C168.02,513.54 166.00,516.00 166.00,516.35 C166.00,516.71 168.02,517.00 170.50,517.00 C173.83,517.00 175.00,517.39 175.00,518.50 C175.00,519.70 173.50,520.00 167.50,520.00 C162.05,520.00 160.00,519.65 160.00,518.71 ZM 166.19 471.25 C166.38,470.29 167.19,469.50 168.00,469.50 C168.81,469.50 169.62,470.29 169.81,471.25 C170.05,472.48 169.51,473.00 168.00,473.00 C166.49,473.00 165.95,472.48 166.19,471.25 ZM 166.00 416.00 L 166.00 406.00 L 162.56 406.00 C160.67,406.00 158.84,405.55 158.50,405.00 C157.80,403.87 157.68,403.90 164.50,403.84 C174.09,403.75 177.00,404.01 177.00,404.94 C177.00,405.46 175.31,406.02 173.25,406.19 L 169.50 406.50 L 169.21 416.25 C168.99,424.01 168.63,426.00 167.46,426.00 C166.28,426.00 166.00,424.11 166.00,416.00 ZM 161.59 378.10 C159.60,375.90 161.20,374.09 163.48,375.98 C164.24,376.62 166.36,376.99 168.18,376.82 C170.96,376.55 171.50,376.10 171.50,374.01 C171.50,372.05 170.56,371.08 167.07,369.43 C161.00,366.55 159.44,362.56 163.00,359.00 C165.17,356.83 169.95,356.37 173.07,358.04 C176.53,359.89 175.13,360.92 170.00,360.31 C166.62,359.91 164.95,360.09 164.85,360.86 C164.77,361.49 164.65,362.53 164.60,363.18 C164.54,363.83 166.73,365.52 169.45,366.93 C175.73,370.19 177.15,373.94 173.49,377.60 C170.44,380.65 164.14,380.92 161.59,378.10 ZM 161.00 321.50 L 161.00 310.00 L 168.50 310.00 C174.50,310.00 176.00,310.30 176.00,311.50 C176.00,312.67 174.67,313.00 170.00,313.00 L 164.00 313.00 L 164.00 316.50 L 164.00 320.00 L 169.50 320.00 C173.72,320.00 175.00,320.35 175.00,321.50 C175.00,322.65 173.72,323.00 169.50,323.00 L 164.00 323.00 L 164.00 327.00 L 164.00 331.00 L 170.00 331.00 C173.33,331.00 176.00,331.44 176.00,332.00 C176.00,332.58 172.83,333.00 168.50,333.00 L 161.00 333.00 L 161.00 321.50 ZM 215.00 283.28 C209.65,281.27 133.34,247.70 132.70,247.07 C132.08,246.47 133.80,241.26 135.64,238.16 C135.75,237.98 144.31,241.51 154.67,246.02 C209.06,269.69 219.33,274.00 221.41,274.00 C226.35,274.00 229.22,266.37 225.63,262.78 C224.88,262.03 205.76,253.35 183.13,243.50 C158.31,232.68 142.00,225.05 142.00,224.24 C142.00,223.15 144.53,217.35 145.51,216.20 C145.65,216.04 164.37,224.04 187.11,233.99 C228.19,251.95 232.50,254.28 235.59,260.20 C239.37,267.43 235.32,278.59 227.65,282.07 C223.62,283.90 218.07,284.43 215.00,283.28 ZM 619.46 259.12 C614.31,256.78 610.62,252.39 608.54,246.13 C606.92,241.25 606.86,241.20 603.70,242.04 C587.01,246.48 545.68,257.00 544.94,257.00 C544.43,257.00 544.00,256.20 544.00,255.21 C544.00,254.23 543.10,251.66 542.01,249.52 C540.91,247.37 540.41,245.36 540.88,245.05 C556.84,234.83 615.99,195.32 615.99,194.88 C616.01,193.61 606.85,191.76 603.06,192.27 C600.90,192.56 598.90,192.57 598.63,192.30 C598.36,192.02 599.06,190.02 600.20,187.85 C602.86,182.73 603.95,174.42 601.85,175.23 C601.05,175.54 585.12,185.87 566.45,198.19 C523.85,226.30 526.12,224.95 524.93,222.83 C524.42,221.92 521.86,219.12 519.25,216.63 L 514.51 212.08 L 518.06 208.29 C520.01,206.21 528.08,197.52 536.00,189.00 C543.92,180.48 552.11,171.68 554.20,169.46 L 558.00 165.42 L 553.14 160.64 L 548.28 155.85 L 526.22 179.34 C505.90,200.96 504.03,202.69 502.62,201.13 C501.77,200.20 496.11,196.07 490.03,191.97 C482.76,187.05 479.11,183.99 479.36,183.00 C479.86,181.00 536.79,98.59 537.95,98.19 C539.46,97.67 546.02,102.42 545.55,103.69 C545.17,104.72 512.99,151.76 497.30,174.21 L 491.92 181.92 L 497.57 185.68 L 503.22 189.43 L 506.30 185.97 C507.99,184.06 520.57,170.48 534.27,155.80 C563.62,124.32 566.16,122.53 575.77,126.55 C585.80,130.74 589.79,140.71 585.07,149.79 C584.01,151.83 572.88,164.48 560.32,177.89 C547.77,191.31 536.38,203.68 535.00,205.38 L 532.50 208.48 L 535.50 206.37 C552.26,194.59 607.57,159.01 608.54,159.38 C609.23,159.64 610.57,162.19 611.52,165.05 C613.43,170.82 613.05,177.06 610.49,182.02 L 608.95 185.00 L 612.72 185.01 C619.19,185.02 624.11,187.00 628.89,191.51 C631.42,193.90 633.26,196.06 632.99,196.31 C632.72,196.56 617.74,206.55 599.70,218.50 C581.66,230.46 567.05,240.38 567.22,240.55 C567.39,240.73 584.63,236.46 605.52,231.07 C626.41,225.68 643.65,221.40 643.83,221.55 C644.01,221.70 645.01,225.12 646.06,229.16 C649.56,242.64 648.29,250.14 641.57,255.68 C635.02,261.08 626.64,262.38 619.46,259.12 ZM 631.36 249.62 C636.49,247.48 639.29,243.28 638.68,238.67 C638.40,236.56 637.93,234.60 637.64,234.31 C637.09,233.75 618.69,237.95 616.95,239.03 C614.70,240.42 619.43,248.39 623.50,250.05 C626.39,251.24 627.67,251.17 631.36,249.62 ZM 577.00 141.99 C577.00,138.32 573.88,135.00 570.43,135.00 C568.57,135.00 566.11,136.84 561.44,141.75 C557.90,145.46 555.00,148.78 555.00,149.12 C555.00,149.47 557.10,151.68 559.67,154.05 L 564.33 158.35 L 570.67 151.67 C575.54,146.52 577.00,144.29 577.00,141.99 ZM 197.27 228.34 L 155.03 198.87 L 157.11 196.07 C160.36,191.67 166.62,188.70 173.97,188.05 L 180.50 187.48 L 174.75 183.60 C171.59,181.46 169.00,179.44 169.00,179.09 C169.00,178.75 170.16,176.76 171.58,174.67 C174.15,170.88 174.16,170.88 176.83,172.59 C179.63,174.39 190.44,181.87 226.00,206.65 C237.82,214.89 248.16,222.02 248.96,222.50 C249.76,222.98 237.61,209.06 221.96,191.56 C206.31,174.06 192.26,158.26 190.75,156.45 L 187.99 153.17 L 194.25 147.59 C205.60,137.47 216.53,133.03 230.15,133.01 C249.71,132.98 268.77,145.91 278.22,165.61 C287.81,185.59 283.95,205.95 267.37,222.79 C263.32,226.91 259.99,230.78 259.97,231.39 C259.96,232.00 258.72,233.96 257.22,235.76 L 254.50 239.01 L 227.00 219.91 C193.42,196.59 191.61,195.58 183.00,195.57 C177.63,195.56 170.88,197.35 172.16,198.45 C172.35,198.61 188.93,210.10 209.00,223.99 C229.07,237.89 245.83,249.55 246.24,249.91 C247.23,250.81 242.24,258.03 240.71,257.90 C240.05,257.85 220.50,244.54 197.27,228.34 ZM 265.46 210.94 C275.48,197.34 275.20,179.59 264.72,164.36 C251.53,145.20 229.66,137.99 211.62,146.86 C199.57,152.80 197.90,149.36 230.55,185.89 C246.33,203.53 259.67,217.70 260.20,217.38 C260.73,217.05 263.10,214.15 265.46,210.94 ZM 281.18 160.63 C270.13,141.85 260.33,124.68 259.39,122.49 C256.95,116.78 257.13,107.52 259.79,102.37 C261.66,98.75 270.24,89.98 271.89,90.01 C272.23,90.02 273.44,91.66 274.60,93.67 L 276.69 97.33 L 272.46 101.41 C266.58,107.09 265.86,111.70 269.56,119.95 C271.05,123.28 272.43,126.00 272.61,126.00 C272.80,126.00 276.21,124.01 280.19,121.59 L 287.43 117.17 L 289.68 120.84 C290.92,122.85 291.95,124.81 291.97,125.19 C291.99,125.57 288.85,127.60 285.01,129.69 C281.16,131.79 278.01,133.81 278.01,134.19 C278.00,135.00 303.76,179.11 304.97,180.35 C305.43,180.82 309.04,179.31 312.99,177.00 C318.22,173.95 320.06,172.35 319.72,171.15 C319.47,170.24 311.53,150.20 302.07,126.61 C292.62,103.01 285.25,83.40 285.69,83.01 C287.24,81.67 297.53,78.00 302.08,77.16 C307.43,76.18 314.96,77.75 317.98,80.48 C321.31,83.50 325.00,92.03 325.00,96.73 C325.00,101.77 323.12,106.75 320.26,109.30 C318.26,111.07 318.30,111.15 324.06,116.64 C330.99,123.25 337.80,132.86 345.20,146.50 C350.57,156.41 355.61,167.79 354.88,168.37 C354.67,168.54 352.58,169.42 350.24,170.33 L 345.98 171.99 L 344.32 167.75 C341.33,160.12 333.19,145.11 327.79,137.25 C322.56,129.64 311.28,117.39 310.36,118.31 C310.09,118.57 315.08,131.63 321.44,147.33 C327.80,163.03 332.98,176.24 332.96,176.69 C332.94,177.13 329.90,178.93 326.21,180.68 C322.52,182.43 315.40,186.32 310.38,189.33 L 301.26 194.79 L 281.18 160.63 ZM 312.08 105.08 C319.37,97.79 312.19,84.61 302.04,86.64 C300.35,86.98 298.74,87.61 298.47,88.05 C298.20,88.48 299.67,93.15 301.74,98.42 C305.96,109.17 307.19,109.96 312.08,105.08 ZM 444.00 168.89 C436.02,166.23 428.22,164.04 426.66,164.03 C423.95,164.00 423.85,163.84 424.42,160.25 C424.75,158.19 426.36,145.25 428.01,131.50 C429.66,117.75 431.24,105.08 431.53,103.34 C432.04,100.28 431.93,100.17 427.78,99.54 C425.43,99.18 422.33,98.67 420.91,98.40 L 418.32 97.91 L 414.46 129.96 L 410.60 162.00 L 408.05 161.88 C406.65,161.82 404.36,161.48 402.97,161.13 L 400.45 160.50 L 406.68 109.50 C410.10,81.45 412.93,58.16 412.95,57.75 C413.02,56.63 421.79,56.84 422.49,57.98 C422.82,58.52 422.31,65.49 421.35,73.45 C420.39,81.42 419.88,88.21 420.21,88.54 C420.75,89.08 432.23,90.99 432.69,90.61 C432.79,90.53 433.58,84.84 434.44,77.98 C437.03,57.30 436.28,59.17 441.77,59.76 C444.37,60.04 446.61,60.35 446.74,60.45 C446.87,60.56 444.49,81.03 441.45,105.96 C438.41,130.88 436.06,151.67 436.22,152.15 C436.38,152.64 440.98,139.64 446.43,123.27 C451.89,106.89 457.33,91.25 458.52,88.50 C464.12,75.57 475.68,69.56 488.25,73.05 C492.48,74.23 492.38,74.00 490.91,78.91 L 489.82 82.56 L 483.16 82.18 C477.42,81.86 476.10,82.12 473.62,84.08 C471.01,86.13 466.03,94.96 466.01,97.57 C466.00,98.15 468.59,99.45 471.75,100.44 C482.81,103.92 482.12,103.29 480.40,108.35 L 478.89 112.78 L 470.98 110.19 C466.63,108.76 462.89,107.80 462.67,108.05 C462.01,108.80 446.00,157.41 446.00,158.67 C446.00,159.31 449.39,160.85 453.54,162.08 C457.68,163.31 461.28,164.64 461.53,165.04 C462.01,165.82 460.13,172.10 459.11,173.11 C458.78,173.44 451.98,171.54 444.00,168.89 ZM 384.00 162.57 C384.00,160.89 376.99,77.87 376.46,73.25 L 375.86 68.00 L 370.03 68.00 L 364.20 68.00 L 363.84 63.50 C363.57,60.01 363.82,58.99 364.99,58.96 C365.82,58.94 373.25,58.31 381.50,57.58 C389.75,56.84 396.84,56.43 397.25,56.68 C397.66,56.92 398.00,59.09 398.00,61.51 L 398.00 65.90 L 392.25 66.20 C386.80,66.48 386.51,66.63 386.71,69.00 C390.29,110.91 394.19,161.14 393.89,161.43 C393.14,162.16 384.00,163.22 384.00,162.57 Z" fill="rgba(0,0,0,1)"/>
</g>
</svg>