<svg xmlns="http://www.w3.org/2000/svg" width="800" height="800" viewBox="0 0 800 800">
<g>
<path d="M 117.09 568.09 C115.77,566.77 115.00,564.72 115.00,562.52 C115.00,556.30 115.51,556.20 153.89,555.08 C172.80,554.52 188.45,553.89 188.67,553.67 C188.89,553.44 173.83,537.79 155.21,518.88 C110.07,473.05 93.37,454.32 81.59,436.31 C66.55,413.31 59.85,389.61 59.74,359.00 C59.61,319.85 72.48,286.04 96.48,262.50 C114.25,245.07 132.12,234.52 152.50,229.42 C177.23,223.24 204.73,227.04 225.95,239.58 C247.42,252.26 259.89,270.45 265.44,297.15 L 265.99 299.80 L 285.06 300.53 C307.43,301.39 305.56,300.23 308.98,315.38 C313.50,335.42 329.41,367.86 344.56,387.92 C351.12,396.61 361.72,407.54 372.83,417.08 C377.26,420.88 378.07,423.79 375.43,426.43 C374.08,427.78 370.03,428.00 346.45,428.00 L 319.04 428.00 L 318.77 451.53 L 318.50 475.06 L 313.03 466.95 C310.02,462.49 307.24,458.65 306.85,458.41 C306.46,458.17 303.36,461.80 299.95,466.48 C296.55,471.17 293.31,475.00 292.74,475.00 C292.06,475.00 291.88,467.21 292.22,451.50 L 292.72 428.00 L 283.22 428.00 L 273.71 428.00 L 263.39 417.85 L 253.07 407.69 L 245.48 414.60 C241.31,418.39 236.06,422.96 233.81,424.75 L 229.73 428.00 L 180.50 428.00 C153.43,428.00 129.17,427.71 126.60,427.36 C121.55,426.67 119.41,424.43 120.51,420.97 C120.85,419.89 127.96,413.89 136.32,407.62 C157.85,391.46 165.38,383.32 182.89,357.27 C191.07,345.10 194.70,337.44 200.53,320.14 C203.19,312.24 206.11,304.85 207.03,303.71 C208.89,301.41 213.14,301.06 239.23,301.02 L 252.95 301.00 L 252.38 297.75 C248.01,272.66 227.13,250.66 200.77,243.37 C192.98,241.22 173.68,240.46 165.39,241.99 C142.44,246.21 125.35,255.30 106.20,273.43 C94.57,284.45 84.29,301.69 79.57,318.08 C76.96,327.10 74.01,349.71 74.00,360.62 C73.99,387.71 83.13,414.60 100.13,437.50 C111.10,452.28 124.10,466.19 171.42,513.75 L 211.47 554.00 L 236.16 554.00 L 260.85 554.00 L 262.93 556.63 C267.48,562.42 264.41,567.50 255.83,568.39 C252.90,568.69 220.95,569.22 184.84,569.56 L 119.19 570.19 L 117.09 568.09 ZM 234.96 405.15 C244.13,396.26 244.27,396.05 242.68,393.80 C235.80,384.04 220.68,354.85 215.01,340.38 L 211.15 330.50 L 209.95 333.83 C207.73,339.99 200.01,355.13 195.66,361.85 C182.12,382.79 163.62,404.70 154.53,410.58 L 151.56 412.50 L 155.53 413.00 C157.71,413.27 174.38,413.66 192.56,413.85 L 225.61 414.20 L 234.96 405.15 ZM 340.40 403.25 C330.82,392.25 320.97,377.51 313.69,363.28 C307.87,351.90 299.37,331.22 296.60,321.70 L 295.03 316.29 L 288.26 315.65 C279.95,314.87 224.55,314.79 223.78,315.56 C223.06,316.27 225.85,325.29 229.86,335.26 C239.23,358.54 254.47,382.98 271.96,402.77 L 280.11 412.00 L 314.07 412.00 L 348.02 412.00 L 340.40 403.25 ZM 479.00 485.94 L 479.00 401.87 L 485.75 402.12 C489.46,402.26 493.06,402.56 493.75,402.79 C494.74,403.12 495.00,419.28 495.00,479.11 L 495.00 555.00 L 507.00 555.00 L 519.00 555.00 L 519.00 562.50 L 519.00 570.00 L 499.00 570.00 L 479.00 570.00 L 479.00 485.94 ZM 526.21 496.25 L 526.50 422.50 L 528.80 417.50 C531.57,411.48 536.09,406.57 541.50,403.71 C547.17,400.70 559.83,400.70 565.50,403.71 C570.91,406.57 575.43,411.48 578.20,417.50 L 580.50 422.50 L 580.79 496.25 L 581.08 570.00 L 572.54 570.00 L 564.00 570.00 L 564.00 519.17 C564.00,491.21 563.81,468.15 563.59,467.92 C563.36,467.69 558.64,467.64 553.09,467.82 L 543.00 468.13 L 543.00 519.07 L 543.00 570.00 L 534.46 570.00 L 525.93 570.00 L 526.21 496.25 ZM 564.00 438.02 L 564.00 423.03 L 561.08 419.77 C558.58,416.96 557.50,416.50 553.50,416.50 C549.50,416.50 548.42,416.96 545.92,419.77 L 543.00 423.03 L 543.00 438.02 L 543.00 453.00 L 553.50 453.00 L 564.00 453.00 L 564.00 438.02 ZM 595.00 486.50 L 595.00 403.00 L 599.34 403.00 C611.22,403.00 620.88,409.05 630.38,422.44 C631.70,424.31 631.81,424.27 633.28,421.44 C635.86,416.48 644.22,408.80 649.86,406.21 C652.95,404.79 657.93,403.53 661.61,403.24 L 668.00 402.73 L 668.00 486.36 L 668.00 570.00 L 659.49 570.00 L 650.97 570.00 L 651.24 497.00 C651.38,456.85 651.28,424.00 651.00,424.00 C650.72,424.01 649.15,424.84 647.50,425.85 C642.84,428.71 638.37,433.77 635.30,439.64 C633.76,442.58 632.01,445.00 631.40,445.00 C630.80,445.00 629.45,443.09 628.41,440.75 C626.22,435.82 618.82,427.47 614.78,425.39 C612.06,423.98 612.00,424.01 611.99,426.72 C611.99,428.25 611.98,461.11 611.98,499.75 L 611.97 570.00 L 603.49 570.00 L 595.00 570.00 L 595.00 486.50 ZM 683.24 486.25 L 683.50 402.50 L 691.35 402.21 C721.93,401.06 736.59,410.66 737.79,432.63 C738.52,445.89 733.89,455.94 724.22,462.07 C718.55,465.67 714.56,466.80 706.00,467.24 L 699.50 467.57 L 699.24 518.79 L 698.98 570.00 L 690.99 570.00 L 682.99 570.00 L 683.24 486.25 ZM 710.06 452.00 C714.31,450.82 718.32,446.87 720.45,441.78 C725.65,429.32 716.90,417.00 702.85,417.00 L 699.00 417.00 L 699.00 435.00 L 699.00 453.00 L 702.75 452.99 C704.81,452.99 708.10,452.54 710.06,452.00 ZM 363.00 502.50 L 363.00 462.00 L 358.00 462.00 L 353.00 462.00 L 353.00 458.00 L 353.00 454.00 L 367.50 454.00 L 382.00 454.00 L 382.00 458.00 L 382.00 462.00 L 377.00 462.00 L 372.00 462.00 L 372.00 502.50 L 372.00 543.00 L 367.50 543.00 L 363.00 543.00 L 363.00 502.50 ZM 386.00 498.50 L 386.00 454.00 L 390.00 454.00 L 394.00 454.00 L 394.00 467.00 C394.00,474.15 394.34,480.03 394.75,480.07 C395.16,480.11 397.75,480.21 400.50,480.30 L 405.50 480.46 L 405.78 467.23 L 406.06 454.00 L 410.54 454.00 L 415.02 454.00 L 414.76 498.25 L 414.50 542.50 L 410.25 542.81 L 406.00 543.11 L 406.00 516.16 C406.00,495.49 405.71,489.12 404.75,488.81 C404.06,488.59 401.48,488.45 399.00,488.50 L 394.50 488.58 L 394.23 515.79 L 393.97 543.00 L 389.98 543.00 L 386.00 543.00 L 386.00 498.50 ZM 422.01 508.25 C422.01,488.06 422.43,471.98 423.02,469.88 C425.37,461.40 431.96,455.83 441.25,454.47 L 446.00 453.77 L 446.00 457.89 C446.00,461.59 445.76,462.00 443.53,462.00 C436.36,462.00 431.00,467.95 431.00,475.90 L 431.00 480.00 L 435.75 480.14 C438.36,480.22 441.53,480.31 442.80,480.33 C444.86,480.38 445.07,480.80 444.80,484.44 C444.47,488.84 444.76,488.70 436.25,488.88 L 431.00 489.00 L 431.00 512.00 L 431.00 535.00 L 438.50 535.00 L 446.00 535.00 L 446.00 539.00 L 446.00 543.00 L 434.00 543.00 L 422.00 543.00 L 422.01 508.25 ZM 395.94 394.11 C388.12,391.56 381.74,385.58 378.99,378.25 C377.07,373.11 377.00,370.40 377.00,299.46 L 377.00 226.00 L 385.00 226.00 L 393.00 226.00 L 393.00 298.43 C393.00,343.07 393.37,371.85 393.98,373.43 C395.11,376.41 400.47,379.99 403.80,380.00 C407.67,380.00 412.08,377.06 413.58,373.47 C414.76,370.63 415.00,358.02 415.00,298.03 L 415.00 226.00 L 423.00 226.00 L 431.00 226.00 L 431.00 298.96 C431.00,370.66 430.96,372.02 428.90,377.54 C424.74,388.67 417.30,394.10 405.50,394.63 C401.65,394.81 397.35,394.57 395.94,394.11 ZM 446.00 309.99 L 446.00 225.98 L 450.25 226.59 C465.07,228.72 474.79,235.18 481.18,247.15 L 483.50 251.50 L 483.78 238.75 L 484.06 226.00 L 492.03 226.00 L 500.00 226.00 L 500.00 310.00 L 500.00 394.00 L 492.06 394.00 L 484.12 394.00 L 483.74 335.25 C483.34,272.07 483.49,273.88 477.98,262.88 C474.71,256.36 466.05,248.00 462.55,248.00 C462.25,248.00 462.00,280.85 462.00,321.00 L 462.00 394.00 L 454.00 394.00 L 446.00 394.00 L 446.00 309.99 ZM 515.00 310.13 L 515.00 226.00 L 524.25 226.01 C556.59,226.04 577.85,234.59 594.75,254.36 C601.25,261.96 608.20,275.77 611.17,287.00 C614.45,299.41 614.42,320.97 611.12,333.00 C604.43,357.33 590.52,375.15 570.50,385.05 C558.21,391.13 549.12,393.12 530.75,393.73 L 515.00 394.26 L 515.00 310.13 ZM 542.91 377.94 C567.71,373.92 586.73,355.98 593.74,330.00 C596.50,319.78 596.19,297.82 593.14,288.04 C585.51,263.56 568.71,247.27 546.18,242.54 C542.16,241.69 537.10,241.00 534.93,241.00 L 531.00 241.00 L 531.00 310.00 L 531.00 379.00 L 533.75 378.99 C535.26,378.99 539.38,378.52 542.91,377.94 ZM 623.01 327.75 C623.02,257.36 623.07,256.64 627.89,247.20 C634.08,235.10 644.83,228.54 661.75,226.55 L 667.00 225.93 L 667.00 233.34 L 667.00 240.74 L 661.75 241.44 C646.74,243.42 639.00,253.03 639.00,269.68 L 639.00 276.00 L 652.50 276.00 L 666.00 276.00 L 666.00 284.00 L 666.00 292.00 L 652.50 292.00 L 639.00 292.00 L 639.00 335.50 L 639.00 379.00 L 653.00 379.00 L 667.00 379.00 L 667.00 386.50 L 667.00 394.00 L 645.00 394.00 L 623.00 394.00 L 623.01 327.75 ZM 677.00 309.88 L 677.00 225.75 L 691.75 226.26 C709.31,226.86 714.81,228.32 721.40,234.12 C727.06,239.10 729.61,243.82 730.85,251.63 C733.26,266.72 726.34,281.03 714.43,285.58 L 710.09 287.24 L 713.64 294.28 C723.54,313.93 729.60,343.53 731.47,381.25 L 732.10 394.00 L 723.55 394.00 L 715.00 394.00 L 715.00 384.25 C714.99,354.35 707.43,316.85 697.76,298.71 L 694.50 292.58 L 694.24 343.29 L 693.98 394.00 L 685.49 394.00 L 677.00 394.00 L 677.00 309.88 ZM 709.28 272.29 C715.34,266.60 716.70,257.80 712.75,249.96 C710.12,244.76 703.85,241.00 697.79,241.00 L 694.00 241.00 L 694.00 258.42 C694.00,271.11 694.33,275.94 695.20,276.23 C698.25,277.25 706.45,274.95 709.28,272.29 Z" fill="rgba(0,0,0,1)"/>
</g>
</svg>