<svg xmlns="http://www.w3.org/2000/svg" width="800" height="800" viewBox="0 0 800 800">
<g>
<path d="M 85.20 498.80 C83.42,497.02 83.75,494.21 85.87,493.07 C86.90,492.52 95.67,492.00 105.37,491.91 C115.07,491.82 123.00,491.44 123.00,491.06 C123.00,490.69 112.38,479.38 99.40,465.94 C86.41,452.50 73.58,438.58 70.87,435.00 C60.11,420.80 55.02,405.84 54.89,388.03 C54.80,376.10 55.31,372.22 58.21,363.00 C66.22,337.47 87.51,319.30 112.77,316.45 C124.90,315.07 140.48,319.92 150.40,328.15 C155.85,332.68 161.44,341.76 163.53,349.47 L 165.30 356.00 L 175.03 356.00 C181.61,356.00 185.08,356.40 185.76,357.25 C186.31,357.94 187.26,360.84 187.86,363.70 C189.19,369.98 195.82,384.98 201.39,394.30 C205.99,401.98 215.63,413.29 220.70,416.94 C222.99,418.59 223.99,420.05 223.79,421.44 C223.51,423.40 222.78,423.51 208.28,423.78 L 193.06 424.05 L 192.78 436.21 L 192.50 448.36 L 189.62 444.00 L 186.74 439.64 L 184.84 442.24 C183.80,443.67 182.07,445.89 181.01,447.17 L 179.07 449.50 L 179.03 436.75 L 179.00 424.00 L 173.93 424.00 C169.15,424.00 168.52,423.68 163.16,418.57 L 157.47 413.15 L 151.79 418.60 L 146.12 424.06 L 117.98 423.97 C102.51,423.92 89.21,423.63 88.43,423.33 C85.67,422.28 87.06,419.96 93.24,415.25 C103.77,407.23 110.95,399.90 117.49,390.50 C125.16,379.46 126.15,377.54 129.49,367.20 C130.96,362.69 132.83,358.32 133.65,357.49 C134.80,356.34 137.77,356.00 146.59,356.00 L 158.04 356.00 L 157.41 353.25 C150.61,323.56 113.19,314.67 85.57,336.19 C71.94,346.81 65.28,359.36 62.91,378.92 C60.45,399.21 66.04,417.04 80.26,434.27 C83.09,437.70 96.64,451.86 110.38,465.75 L 135.35 491.00 L 147.11 491.00 C161.26,491.00 164.26,491.85 163.82,495.75 L 163.50 498.50 L 149.00 499.12 C121.96,500.29 86.51,500.11 85.20,498.80 ZM 148.13 412.15 L 153.40 407.31 L 150.28 402.40 C146.77,396.90 137.69,378.63 136.63,374.92 C136.00,372.75 135.58,373.19 132.51,379.26 C127.25,389.68 117.67,403.04 110.61,409.82 L 104.23 415.95 L 118.86 416.25 C126.91,416.42 135.61,416.66 138.18,416.78 C142.51,416.98 143.25,416.64 148.13,412.15 ZM 208.00 414.81 C208.00,414.43 207.52,413.82 206.93,413.46 C206.35,413.10 203.34,409.39 200.26,405.22 C193.40,395.95 186.19,382.00 182.93,371.72 L 180.50 364.04 L 161.25 364.02 C150.66,364.01 142.00,364.21 142.00,364.48 C142.00,364.74 143.06,367.78 144.37,371.24 C149.55,385.02 157.05,397.58 166.72,408.72 L 172.12 414.95 L 186.81 415.22 C207.14,415.61 208.00,415.59 208.00,414.81 ZM 448.75 498.89 C445.76,497.19 446.82,496.17 451.00,496.73 C454.27,497.16 455.00,496.96 455.00,495.62 C455.00,494.71 453.42,493.22 451.50,492.30 C447.84,490.55 446.86,487.54 449.20,485.20 C450.87,483.53 454.51,483.70 456.02,485.52 C457.11,486.84 456.83,487.01 453.89,486.77 C449.54,486.42 449.33,488.69 453.50,490.99 C456.49,492.65 457.69,495.52 456.26,497.60 C455.11,499.26 450.72,500.02 448.75,498.89 ZM 496.26 498.47 C493.54,496.56 492.39,491.03 494.06,487.86 C497.70,480.95 505.02,483.71 504.98,491.97 C504.97,496.06 504.32,497.27 501.32,498.85 C498.60,500.28 498.87,500.30 496.26,498.47 ZM 502.39 495.42 C503.47,492.60 503.04,488.28 501.55,487.04 C497.85,483.97 493.60,489.63 495.86,494.60 C497.13,497.38 501.43,497.92 502.39,495.42 ZM 435.00 491.50 L 435.00 484.00 L 440.00 484.00 C442.75,484.00 445.00,484.45 445.00,485.00 C445.00,485.55 443.17,486.00 440.93,486.00 C437.28,486.00 436.89,486.23 437.18,488.25 C437.43,490.03 438.34,490.63 441.50,491.11 C445.89,491.78 444.85,492.60 439.25,492.88 C437.71,492.96 437.00,493.63 437.00,495.00 C437.00,496.93 438.30,497.45 442.16,497.07 C443.08,496.98 444.11,497.38 444.47,497.95 C444.89,498.63 443.33,499.00 440.06,499.00 L 435.00 499.00 L 435.00 491.50 ZM 463.00 492.50 C463.00,486.23 462.91,486.00 460.50,486.00 C459.12,486.00 458.00,485.55 458.00,485.00 C458.00,484.44 460.67,484.00 464.00,484.00 C467.33,484.00 470.00,484.44 470.00,485.00 C470.00,485.55 468.88,486.00 467.50,486.00 C465.09,486.00 465.00,486.23 465.00,492.50 C465.00,496.17 464.56,499.00 464.00,499.00 C463.44,499.00 463.00,496.17 463.00,492.50 ZM 471.00 498.00 C471.00,497.45 471.67,497.00 472.50,497.00 C473.33,497.00 474.00,497.45 474.00,498.00 C474.00,498.55 473.33,499.00 472.50,499.00 C471.67,499.00 471.00,498.55 471.00,498.00 ZM 481.00 498.36 C481.00,498.01 482.80,495.77 485.00,493.38 C487.20,491.00 489.00,488.57 489.00,487.99 C489.00,486.28 485.89,485.59 483.87,486.85 C482.38,487.78 482.00,487.73 482.00,486.62 C482.00,483.61 488.42,483.06 489.96,485.93 C491.51,488.81 491.29,489.60 487.90,493.47 C484.84,496.94 484.96,497.28 489.25,497.27 C490.21,497.26 491.00,497.65 491.00,498.13 C491.00,498.61 488.75,499.00 486.00,499.00 C483.25,499.00 481.00,498.71 481.00,498.36 ZM 510.00 492.50 C510.00,487.39 509.68,486.00 508.50,486.00 C507.67,486.00 507.00,485.55 507.00,485.00 C507.00,484.45 508.12,484.00 509.50,484.00 C511.94,484.00 512.00,484.17 512.00,491.50 C512.00,495.83 511.58,499.00 511.00,499.00 C510.44,499.00 510.00,496.17 510.00,492.50 ZM 515.42 496.56 C515.09,495.21 515.17,493.53 515.61,492.82 C516.05,492.11 516.28,490.08 516.13,488.30 C515.89,485.56 516.24,484.98 518.44,484.43 C521.97,483.54 524.32,485.63 523.64,489.05 C523.35,490.51 523.59,492.19 524.18,492.78 C524.77,493.37 524.96,495.01 524.61,496.43 C524.05,498.65 523.42,499.00 520.00,499.00 C516.63,499.00 515.95,498.63 515.42,496.56 ZM 521.99 496.51 C523.65,494.51 522.54,492.00 520.00,492.00 C518.87,492.00 517.68,492.68 517.36,493.51 C516.78,495.01 518.54,498.00 520.00,498.00 C520.42,498.00 521.31,497.33 521.99,496.51 ZM 522.00 488.00 C522.00,486.67 521.33,486.00 520.00,486.00 C518.67,486.00 518.00,486.67 518.00,488.00 C518.00,489.33 518.67,490.00 520.00,490.00 C521.33,490.00 522.00,489.33 522.00,488.00 ZM 362.00 448.00 L 362.00 433.00 L 368.95 433.00 C377.17,433.00 380.45,434.26 382.01,438.03 C382.94,440.26 382.84,441.40 381.53,443.93 C380.00,446.91 380.02,447.21 381.96,449.67 C384.80,453.29 384.52,456.64 381.08,460.08 C378.33,462.83 377.67,463.00 370.08,463.00 L 362.00 463.00 L 362.00 448.00 ZM 376.78 457.44 C381.49,454.14 378.19,449.00 371.35,449.00 L 367.00 449.00 L 367.00 454.00 L 367.00 459.00 L 370.78 459.00 C372.86,459.00 375.56,458.30 376.78,457.44 ZM 377.00 443.00 C378.90,439.44 376.65,437.00 371.46,437.00 L 367.00 437.00 L 367.00 441.00 L 367.00 445.00 L 371.46 445.00 C374.91,445.00 376.17,444.54 377.00,443.00 ZM 394.30 460.75 C389.87,457.60 387.78,453.58 387.69,448.06 C387.60,441.73 390.37,437.11 396.02,434.19 C412.37,425.74 426.26,448.35 412.06,460.30 C407.74,463.93 399.10,464.15 394.30,460.75 ZM 409.60 455.60 C413.43,451.77 414.11,447.05 411.55,442.09 C406.90,433.11 392.43,437.36 392.81,447.59 C393.02,453.15 393.88,454.96 397.34,457.07 C402.11,459.98 405.65,459.55 409.60,455.60 ZM 429.18 460.97 C422.44,456.86 420.12,445.43 424.74,439.09 C427.77,434.91 434.78,431.78 439.47,432.49 C453.55,434.63 457.73,452.74 446.00,460.75 C441.66,463.72 433.85,463.82 429.18,460.97 ZM 444.95 455.51 C447.01,453.44 447.50,451.99 447.50,447.90 C447.50,443.44 447.11,442.48 444.23,439.92 C439.82,435.97 435.18,435.97 430.77,439.92 C427.87,442.51 427.51,443.40 427.57,447.89 C427.65,453.18 429.51,456.37 433.50,458.10 C436.73,459.50 442.19,458.26 444.95,455.51 ZM 458.00 448.00 L 458.00 433.00 L 460.50 433.00 C462.92,433.00 463.00,433.22 463.02,439.75 L 463.04 446.50 L 469.62 439.75 C474.97,434.27 476.80,433.00 479.33,433.00 L 482.45 433.00 L 475.58 439.92 L 468.71 446.84 L 471.77 450.67 C473.45,452.78 476.44,456.05 478.41,457.95 C482.72,462.08 482.87,463.00 479.27,463.00 C477.16,463.00 475.00,461.34 469.82,455.75 L 463.10 448.50 L 463.05 455.75 C463.00,462.80 462.93,463.00 460.50,463.00 L 458.00 463.00 L 458.00 448.00 ZM 500.18 460.97 C495.78,458.29 492.58,451.16 493.31,445.69 C494.03,440.33 496.63,436.99 502.27,434.16 C507.61,431.48 512.76,431.78 517.00,435.00 C519.33,436.77 519.39,437.02 517.84,438.57 C516.31,440.12 516.01,440.12 513.87,438.62 C510.30,436.12 505.51,436.57 501.95,439.75 C493.89,446.96 500.09,460.63 510.42,458.43 C512.12,458.06 514.06,457.32 514.75,456.76 C515.60,456.07 516.47,456.15 517.50,457.00 C519.68,458.81 519.37,459.76 516.05,461.47 C511.82,463.66 504.20,463.42 500.18,460.97 ZM 524.00 448.00 L 524.00 433.00 L 526.47 433.00 L 528.94 433.00 L 529.22 445.75 L 529.50 458.50 L 536.50 458.50 C543.05,458.51 543.51,458.65 543.61,460.75 C543.72,462.94 543.45,463.00 533.86,463.00 L 524.00 463.00 L 524.00 448.00 ZM 550.40 459.60 L 547.00 456.20 L 547.00 444.60 L 547.00 433.00 L 549.50 433.00 L 552.00 433.00 L 552.00 443.93 C552.00,455.34 552.59,457.10 556.87,458.46 C559.75,459.37 563.93,457.32 565.02,454.45 C565.56,453.03 566.00,447.62 566.00,442.43 C566.00,433.04 566.01,433.00 568.50,433.00 C570.99,433.00 571.00,433.05 570.99,442.25 C570.99,447.34 570.51,453.21 569.93,455.30 C568.60,460.10 564.17,462.99 558.15,463.00 C554.53,463.00 553.23,462.43 550.40,459.60 ZM 577.00 448.00 L 577.00 433.00 L 583.95 433.00 C592.17,433.00 595.45,434.26 597.01,438.03 C597.94,440.26 597.84,441.40 596.53,443.93 C595.00,446.91 595.02,447.21 596.96,449.67 C599.80,453.29 599.52,456.64 596.08,460.08 C593.33,462.83 592.67,463.00 585.08,463.00 L 577.00 463.00 L 577.00 448.00 ZM 591.78 457.44 C596.49,454.14 593.19,449.00 586.35,449.00 L 582.00 449.00 L 582.00 454.00 L 582.00 459.00 L 585.78 459.00 C587.86,459.00 590.56,458.30 591.78,457.44 ZM 591.96 443.07 C593.30,440.56 593.29,440.43 591.43,438.57 C590.53,437.68 588.17,437.00 585.93,437.00 C582.01,437.00 582.00,437.01 582.00,441.00 L 582.00 445.00 L 586.46 445.00 C589.86,445.00 591.18,444.53 591.96,443.07 ZM 244.76 403.96 C242.52,402.10 240.67,399.46 240.04,397.21 C239.42,394.96 239.01,378.39 239.01,355.25 L 239.00 317.00 L 243.50 317.00 L 248.00 317.00 L 248.00 356.35 C248.00,393.19 248.12,395.80 249.83,397.35 C250.83,398.26 252.80,399.00 254.21,399.00 C259.45,399.00 259.48,398.79 259.79,356.35 L 260.09 317.00 L 264.04 317.00 L 268.00 317.00 L 268.00 356.60 C268.00,391.52 267.80,396.61 266.33,399.72 C264.06,404.51 259.67,406.99 253.48,407.00 C249.35,407.00 247.80,406.46 244.76,403.96 ZM 276.71 406.38 C276.32,405.99 276.00,385.66 276.00,361.20 L 276.00 316.74 L 279.60 317.32 C285.22,318.24 290.27,321.30 293.00,325.46 L 295.50 329.28 L 295.80 323.14 L 296.10 317.00 L 300.55 317.00 L 305.00 317.00 L 305.00 362.06 L 305.00 407.11 L 300.75 406.81 L 296.50 406.50 L 296.00 373.50 C295.55,343.88 295.31,340.15 293.65,337.11 C291.73,333.59 287.33,329.00 285.87,329.00 C285.40,329.00 284.91,346.44 284.76,367.75 L 284.50 406.50 L 280.96 406.80 C279.02,406.96 277.11,406.77 276.71,406.38 ZM 313.65 406.32 C313.29,405.96 313.00,385.72 313.00,361.33 L 313.00 317.00 L 320.05 317.00 C336.77,317.00 349.62,323.02 357.48,334.54 C374.50,359.47 364.44,394.73 337.67,404.00 C332.43,405.81 314.84,407.51 313.65,406.32 ZM 335.72 395.96 C341.75,393.36 349.52,385.67 352.74,379.13 C355.27,373.97 355.50,372.54 355.50,362.00 C355.50,351.66 355.23,349.93 352.86,344.88 C347.66,333.79 338.53,326.85 327.25,325.41 L 322.00 324.74 L 322.00 361.93 L 322.00 399.12 L 326.75 398.45 C329.36,398.08 333.40,396.96 335.72,395.96 ZM 371.70 406.36 C370.55,405.22 370.89,335.95 372.06,331.72 C373.26,327.42 378.02,321.56 381.99,319.50 C383.47,318.74 387.01,317.80 389.84,317.43 L 395.00 316.74 L 395.00 320.87 C395.00,324.32 394.67,325.00 393.02,325.00 C389.25,325.00 383.39,328.07 381.70,330.93 C380.77,332.51 379.89,335.98 379.75,338.65 L 379.50 343.50 L 386.75 343.79 L 394.00 344.09 L 394.00 348.04 L 394.00 352.00 L 386.48 352.00 L 378.96 352.00 L 379.23 375.25 L 379.50 398.50 L 387.31 398.79 L 395.12 399.09 L 394.81 402.79 L 394.50 406.50 L 383.45 406.78 C377.37,406.94 372.08,406.75 371.70,406.36 ZM 400.00 362.06 L 400.00 317.00 L 407.79 317.00 C418.08,317.00 423.50,319.57 426.82,326.00 C430.88,333.89 427.87,345.16 420.91,348.04 C417.51,349.44 417.51,349.29 421.36,358.50 C424.99,367.17 427.89,382.83 428.22,395.50 L 428.50 406.50 L 424.50 406.50 L 420.50 406.50 L 419.84 395.87 C418.88,380.32 415.03,363.20 410.84,355.85 C409.69,353.83 409.43,357.21 409.00,380.00 L 408.50 406.50 L 404.25 406.81 L 400.00 407.11 L 400.00 362.06 ZM 417.08 341.08 C419.24,338.91 420.00,337.21 420.00,334.50 C420.00,330.03 415.54,325.00 411.58,325.00 L 409.00 325.00 L 409.00 334.50 L 409.00 344.00 L 411.58 344.00 C413.09,344.00 415.36,342.80 417.08,341.08 ZM 467.00 366.06 L 467.00 325.00 L 462.00 325.00 L 457.00 325.00 L 457.00 321.00 L 457.00 317.00 L 471.50 317.00 L 486.00 317.00 L 486.00 321.00 L 486.00 325.00 L 481.01 325.00 L 476.02 325.00 L 475.76 365.75 L 475.50 406.50 L 471.25 406.81 L 467.00 407.11 L 467.00 366.06 ZM 490.00 362.06 L 490.00 317.00 L 494.50 317.00 L 499.00 317.00 L 499.00 330.50 L 499.00 344.00 L 504.50 344.00 L 510.00 344.00 L 510.00 330.50 L 510.00 317.00 L 514.50 317.00 L 519.00 317.00 L 519.00 362.06 L 519.00 407.11 L 514.75 406.81 L 510.50 406.50 L 510.23 379.25 L 509.97 352.00 L 504.50 352.00 L 499.03 352.00 L 498.77 379.25 L 498.50 406.50 L 494.25 406.81 L 490.00 407.11 L 490.00 362.06 ZM 527.00 370.50 C527.00,330.68 527.13,329.63 532.80,323.66 C536.45,319.82 539.74,318.24 545.71,317.44 L 550.73 316.78 L 550.73 320.89 C550.73,324.22 550.38,325.00 548.88,325.00 C547.87,325.00 545.21,325.73 542.98,326.62 C538.24,328.52 536.15,331.90 535.31,339.05 L 534.72 344.00 L 542.36 344.00 L 550.00 344.00 L 550.00 348.00 L 550.00 352.00 L 542.48 352.00 L 534.96 352.00 L 535.23 375.25 L 535.50 398.50 L 543.31 398.79 L 551.12 399.09 L 550.81 402.79 L 550.50 406.50 L 538.75 406.78 L 527.00 407.06 L 527.00 370.50 ZM 581.70 406.37 C581.31,405.98 581.00,385.72 581.00,361.33 L 581.00 317.00 L 585.50 317.00 L 590.00 317.00 L 590.00 358.00 L 590.00 399.00 L 596.56 399.00 L 603.12 399.00 L 602.81 402.75 L 602.50 406.50 L 592.45 406.78 C586.92,406.94 582.08,406.75 581.70,406.37 ZM 607.00 367.01 C607.00,323.59 607.01,323.50 612.51,319.17 C616.56,315.98 622.09,315.51 627.47,317.88 C631.18,319.53 632.46,320.79 634.05,324.38 C635.92,328.61 636.01,330.88 635.76,367.67 L 635.50 406.50 L 631.50 406.50 L 627.50 406.50 L 627.23 379.25 L 626.97 352.00 L 621.00 352.00 L 615.03 352.00 L 614.77 379.25 L 614.50 406.50 L 610.75 406.81 L 607.00 407.12 L 607.00 367.01 ZM 627.00 336.19 C627.00,331.46 626.51,327.76 625.75,326.79 C623.67,324.15 620.51,323.77 617.95,325.84 C616.03,327.39 615.54,328.92 615.19,334.35 C614.60,343.57 614.88,344.00 621.47,344.00 L 627.00 344.00 L 627.00 336.19 ZM 644.00 362.00 L 644.00 317.00 L 646.25 317.02 C650.14,317.06 656.52,320.60 659.74,324.50 L 662.84 328.26 L 666.16 324.47 C669.64,320.50 675.93,317.06 679.75,317.02 L 682.00 317.00 L 682.00 362.00 L 682.00 407.00 L 678.00 407.00 L 674.00 407.00 L 674.00 368.00 C674.00,344.83 673.63,329.00 673.08,329.00 C671.29,329.00 666.25,333.99 665.01,336.98 C663.55,340.51 662.40,340.82 661.48,337.93 C660.57,335.06 655.09,329.00 653.40,329.00 C652.23,329.00 652.00,335.29 652.00,368.00 L 652.00 407.00 L 648.00 407.00 L 644.00 407.00 L 644.00 362.00 ZM 690.67 406.33 C690.30,405.97 690.00,385.72 690.00,361.33 L 690.00 317.00 L 698.29 317.00 C704.89,317.00 707.48,317.46 711.04,319.25 C719.10,323.31 722.25,333.83 717.99,342.43 C715.33,347.79 712.22,349.89 704.98,351.24 L 699.00 352.35 L 699.00 379.68 L 699.00 407.00 L 695.17 407.00 C693.06,407.00 691.03,406.70 690.67,406.33 ZM 708.08 341.08 C714.31,334.84 710.33,325.00 701.57,325.00 L 699.00 325.00 L 699.00 334.50 L 699.00 344.00 L 702.08 344.00 C704.14,344.00 706.11,343.04 708.08,341.08 Z" fill="rgba(0,0,0,1)"/>
</g>
</svg>