<svg xmlns="http://www.w3.org/2000/svg" width="800" height="800" viewBox="0 0 800 800">
<style>
  path { fill: #efedeb; }
</style>
<g>
<path d="M 244.83 709.38 C241.26,707.05 240.00,703.98 240.00,697.64 C240.00,693.09 240.41,691.98 243.01,689.49 C245.89,686.73 246.58,686.57 258.26,685.90 C264.99,685.51 286.69,684.85 306.48,684.45 C326.27,684.04 343.37,683.60 344.48,683.48 C345.59,683.36 352.95,683.20 360.83,683.13 C369.49,683.05 375.03,682.62 374.83,682.04 C374.49,681.07 364.81,671.19 290.96,596.51 C217.47,522.19 182.11,479.42 164.46,443.50 C140.74,395.23 133.27,333.70 144.08,275.79 C147.01,260.08 151.92,242.23 156.67,230.00 C161.76,216.90 173.04,195.18 181.07,183.00 C187.88,172.68 192.03,167.81 204.91,155.09 C249.37,111.17 292.07,90.89 345.45,88.34 C373.92,86.99 407.43,94.37 433.00,107.63 C474.81,129.32 503.60,167.17 511.61,211.00 C512.57,216.23 513.69,220.89 514.10,221.37 C514.51,221.85 527.14,222.46 542.17,222.72 C557.20,222.98 572.63,223.49 576.46,223.85 C582.84,224.45 583.60,224.76 585.55,227.66 C586.83,229.57 588.57,235.35 589.90,242.16 C593.28,259.48 595.57,267.12 602.11,282.83 C611.90,306.40 632.68,346.65 644.78,365.50 C658.61,387.04 685.45,416.75 702.53,429.41 C713.05,437.21 713.95,438.40 713.98,444.60 C714.02,453.53 717.43,452.97 660.42,453.25 L 610.50 453.50 L 610.00 496.50 L 609.50 539.50 L 598.63 523.75 C592.66,515.09 587.48,508.01 587.13,508.02 C586.78,508.03 584.05,511.51 581.06,515.77 C571.18,529.84 566.15,536.56 564.16,538.35 C562.25,540.09 562.18,540.03 561.50,535.98 C561.11,533.70 561.13,514.08 561.53,492.37 L 562.27 452.90 L 545.89 453.06 C536.87,453.14 528.43,452.80 527.13,452.29 C525.83,451.78 516.97,443.58 507.45,434.06 L 490.14 416.76 L 477.78 428.13 C461.34,443.25 452.98,450.47 450.26,451.89 C448.60,452.76 423.44,453.05 352.46,453.03 C246.30,453.00 252.02,453.37 250.11,446.45 C248.51,440.63 250.12,438.18 260.77,430.32 C300.47,401.04 304.00,398.20 317.08,385.10 C328.77,373.40 333.19,367.94 348.79,346.00 C377.77,305.22 381.64,297.91 394.50,259.53 C398.61,247.26 402.86,235.17 403.93,232.67 C407.48,224.39 406.78,224.53 445.45,224.26 C464.18,224.13 481.85,223.76 484.71,223.44 L 489.92 222.87 L 489.36 219.68 C486.14,201.37 480.39,186.79 470.63,172.12 C456.20,150.45 434.51,133.27 408.73,123.07 C379.69,111.60 338.65,111.80 303.00,123.60 C276.47,132.38 260.20,141.85 235.82,162.72 C214.24,181.19 200.88,197.42 190.25,218.10 C179.57,238.86 174.67,254.07 170.49,279.50 C163.72,320.59 163.41,340.78 169.06,371.50 C171.37,384.07 177.85,407.05 182.09,417.73 C188.74,434.47 202.39,458.36 211.95,470.00 C213.98,472.48 218.72,478.55 222.48,483.50 C226.24,488.45 231.35,494.75 233.84,497.50 C255.92,521.89 285.84,552.61 346.00,612.66 L 416.50 683.03 L 457.50 682.98 C480.05,682.96 499.88,682.95 501.56,682.97 C503.61,682.99 505.67,684.03 507.81,686.12 C510.77,689.01 511.00,689.72 511.00,695.94 C511.00,704.24 509.07,706.54 500.94,707.92 C495.44,708.85 447.72,709.54 318.50,710.57 C251.99,711.10 247.33,711.02 244.83,709.38 ZM 448.96 420.50 C454.09,416.10 461.87,408.58 466.26,403.79 L 474.22 395.07 L 471.30 391.29 C460.00,376.63 429.91,318.41 420.04,292.09 C417.13,284.34 414.44,278.00 414.07,278.00 C413.70,278.00 412.34,281.26 411.06,285.25 C407.88,295.12 394.61,321.14 386.05,334.29 C371.34,356.88 346.01,389.91 334.83,401.08 C323.85,412.05 311.70,422.95 308.35,424.82 C307.34,425.39 306.81,426.14 307.17,426.50 C307.81,427.14 405.74,428.86 428.07,428.62 L 439.64 428.50 L 448.96 420.50 ZM 657.85 419.25 C625.99,386.49 597.16,338.03 576.50,282.50 C572.31,271.26 567.00,254.44 567.00,252.44 C567.00,251.71 566.50,250.81 565.89,250.43 C564.12,249.34 437.32,248.67 436.65,249.75 C435.75,251.21 443.54,274.98 449.61,289.30 C469.82,336.99 500.20,383.55 533.41,417.75 L 540.45 425.00 L 601.94 425.00 L 663.44 425.00 L 657.85 419.25 Z" />
</g>
</svg>